<svg width="196" height="37" viewBox="0 0 196 37" fill="none" xmlns="http://www.w3.org/2000/svg">
<circle cx="123.363" cy="18.32" r="9.77121" fill="#BFD5CD"/>
<circle cx="153.898" cy="18.32" r="9.77121" fill="#E7AA74"/>
<path d="M4.76895 22.2703C5.58905 22.7335 6.4188 23.1532 7.2582 23.5294C8.10724 23.8961 8.98523 24.2096 9.89217 24.4701C10.7991 24.721 11.7495 24.914 12.7432 25.049C13.7466 25.1841 14.8128 25.2517 15.9416 25.2517C17.302 25.2517 18.4598 25.1648 19.415 24.9912C20.3702 24.8078 21.1469 24.5618 21.745 24.2531C22.3529 23.9347 22.7919 23.5584 23.062 23.1242C23.3418 22.69 23.4817 22.2173 23.4817 21.7059C23.4817 20.8858 23.1392 20.2394 22.4542 19.7666C21.7692 19.2842 20.7127 19.043 19.2847 19.043C18.6576 19.043 17.9967 19.0864 17.302 19.1733C16.6074 19.2504 15.903 19.3373 15.1891 19.4338C14.4847 19.5302 13.7852 19.6219 13.0906 19.7087C12.4055 19.7859 11.7591 19.8245 11.1513 19.8245C10.1382 19.8245 9.16373 19.6943 8.22785 19.4338C7.30161 19.1733 6.47669 18.7825 5.75307 18.2615C5.0391 17.7405 4.46985 17.0892 4.04533 16.3077C3.62081 15.5262 3.40854 14.6145 3.40854 13.5724C3.40854 12.955 3.49055 12.3423 3.65457 11.7345C3.82824 11.1266 4.09839 10.5477 4.46503 9.99777C4.84131 9.43817 5.32372 8.92199 5.91226 8.44922C6.50081 7.96681 7.20995 7.55194 8.0397 7.2046C8.8791 6.85726 9.84393 6.58711 10.9342 6.39415C12.0341 6.19153 13.2835 6.09023 14.6825 6.09023C15.6956 6.09023 16.7135 6.14812 17.7362 6.26389C18.7589 6.37003 19.7527 6.5244 20.7175 6.72701C21.692 6.92962 22.6279 7.17565 23.5251 7.4651C24.4224 7.7449 25.257 8.05847 26.0289 8.40581L24.0172 12.1107C23.3804 11.8309 22.6954 11.5753 21.9621 11.3437C21.2289 11.1025 20.4618 10.8951 19.661 10.7214C18.8602 10.5477 18.0305 10.4126 17.1718 10.3162C16.3227 10.21 15.4544 10.157 14.5667 10.157C13.3028 10.157 12.2608 10.2486 11.4407 10.4319C10.6303 10.6153 9.98383 10.8516 9.50141 11.1411C9.019 11.4209 8.68131 11.7393 8.48835 12.0963C8.30503 12.4436 8.21337 12.7909 8.21337 13.1383C8.21337 13.8137 8.51729 14.3684 9.12513 14.8026C9.73297 15.2271 10.6592 15.4394 11.9038 15.4394C12.4055 15.4394 12.9796 15.4056 13.626 15.3381C14.2821 15.2609 14.9671 15.1789 15.6811 15.092C16.4047 15.0052 17.138 14.928 17.8809 14.8605C18.6335 14.7833 19.3619 14.7447 20.0663 14.7447C21.3977 14.7447 22.5748 14.8943 23.5975 15.1934C24.6299 15.4924 25.4934 15.9218 26.1881 16.4814C26.8827 17.0313 27.4086 17.7019 27.7656 18.4931C28.1225 19.2746 28.301 20.1526 28.301 21.127C28.301 22.4295 27.9971 23.5922 27.3893 24.6149C26.7911 25.6279 25.9324 26.4866 24.8132 27.191C23.7036 27.8856 22.3625 28.4163 20.7899 28.7829C19.2172 29.1399 17.466 29.3184 15.5364 29.3184C14.2628 29.3184 13.0182 29.2364 11.8025 29.0724C10.5868 28.918 9.4194 28.6961 8.30021 28.4066C7.19066 28.1075 6.12935 27.7554 5.11628 27.3501C4.11287 26.9353 3.18181 26.4818 2.32312 25.9897L4.76895 22.2703ZM33.3519 6.37967H37.9396V18.0878L49.8793 6.37967H55.7551L44.6114 17.1761L55.7551 29H49.6478L41.3117 20.3745L37.9396 23.6307V29H33.3519V6.37967ZM57.4339 6.37967H62.0506V29H57.4339V6.37967ZM67.9119 6.37967H72.4997V24.9767H85.6551V29H67.9119V6.37967ZM90.1126 6.37967H94.7003V24.9767H107.856V29H90.1126V6.37967ZM110.982 17.6247C110.982 15.917 111.295 14.354 111.922 12.9357C112.55 11.5174 113.428 10.3017 114.556 9.28862C115.695 8.26591 117.055 7.47475 118.638 6.91515C120.23 6.35555 121.99 6.07575 123.92 6.07575C125.84 6.07575 127.596 6.35555 129.188 6.91515C130.78 7.47475 132.14 8.26591 133.269 9.28862C134.408 10.3017 135.29 11.5174 135.918 12.9357C136.545 14.354 136.858 15.917 136.858 17.6247C136.858 19.3421 136.545 20.9196 135.918 22.3572C135.29 23.7851 134.408 25.0153 133.269 26.0476C132.14 27.08 130.78 27.8856 129.188 28.4645C127.596 29.0338 125.84 29.3184 123.92 29.3184C121.99 29.3184 120.23 29.0338 118.638 28.4645C117.055 27.8856 115.695 27.08 114.556 26.0476C113.428 25.0153 112.55 23.7851 111.922 22.3572C111.295 20.9196 110.982 19.3421 110.982 17.6247ZM115.569 17.6247C115.569 18.7921 115.777 19.8438 116.192 20.7797C116.616 21.7156 117.2 22.5164 117.943 23.1821C118.695 23.8382 119.578 24.3447 120.591 24.7017C121.614 25.0587 122.724 25.2372 123.92 25.2372C125.116 25.2372 126.221 25.0587 127.234 24.7017C128.257 24.3447 129.14 23.8382 129.883 23.1821C130.626 22.5164 131.209 21.7156 131.634 20.7797C132.058 19.8438 132.271 18.7921 132.271 17.6247C132.271 16.4573 132.058 15.4104 131.634 14.4842C131.209 13.558 130.626 12.7765 129.883 12.1397C129.14 11.4932 128.257 11.0012 127.234 10.6635C126.221 10.3258 125.116 10.157 123.92 10.157C122.724 10.157 121.614 10.3258 120.591 10.6635C119.578 11.0012 118.695 11.4932 117.943 12.1397C117.2 12.7765 116.616 13.558 116.192 14.4842C115.777 15.4104 115.569 16.4573 115.569 17.6247ZM140.621 17.6247C140.621 15.917 140.935 14.354 141.562 12.9357C142.189 11.5174 143.067 10.3017 144.196 9.28862C145.334 8.26591 146.695 7.47475 148.277 6.91515C149.869 6.35555 151.63 6.07575 153.559 6.07575C155.479 6.07575 157.235 6.35555 158.827 6.91515C160.419 7.47475 161.78 8.26591 162.909 9.28862C164.047 10.3017 164.93 11.5174 165.557 12.9357C166.184 14.354 166.498 15.917 166.498 17.6247C166.498 19.3421 166.184 20.9196 165.557 22.3572C164.93 23.7851 164.047 25.0153 162.909 26.0476C161.78 27.08 160.419 27.8856 158.827 28.4645C157.235 29.0338 155.479 29.3184 153.559 29.3184C151.63 29.3184 149.869 29.0338 148.277 28.4645C146.695 27.8856 145.334 27.08 144.196 26.0476C143.067 25.0153 142.189 23.7851 141.562 22.3572C140.935 20.9196 140.621 19.3421 140.621 17.6247ZM145.209 17.6247C145.209 18.7921 145.416 19.8438 145.831 20.7797C146.256 21.7156 146.839 22.5164 147.582 23.1821C148.335 23.8382 149.218 24.3447 150.231 24.7017C151.254 25.0587 152.363 25.2372 153.559 25.2372C154.756 25.2372 155.861 25.0587 156.874 24.7017C157.896 24.3447 158.779 23.8382 159.522 23.1821C160.265 22.5164 160.849 21.7156 161.273 20.7797C161.698 19.8438 161.91 18.7921 161.91 17.6247C161.91 16.4573 161.698 15.4104 161.273 14.4842C160.849 13.558 160.265 12.7765 159.522 12.1397C158.779 11.4932 157.896 11.0012 156.874 10.6635C155.861 10.3258 154.756 10.157 153.559 10.157C152.363 10.157 151.254 10.3258 150.231 10.6635C149.218 11.0012 148.335 11.4932 147.582 12.1397C146.839 12.7765 146.256 13.558 145.831 14.4842C145.416 15.4104 145.209 16.4573 145.209 17.6247ZM171.592 6.37967H183.517C185.254 6.37967 186.759 6.56781 188.033 6.9441C189.306 7.32038 190.363 7.8655 191.202 8.57948C192.042 9.2838 192.664 10.1473 193.069 11.17C193.484 12.1927 193.691 13.3457 193.691 14.6289C193.691 15.835 193.489 16.9493 193.084 17.972C192.678 18.9948 192.056 19.8824 191.217 20.635C190.387 21.3779 189.335 21.9616 188.062 22.3861C186.788 22.801 185.283 23.0084 183.546 23.0084L176.18 22.994V29H171.592V6.37967ZM183.633 19.0285C184.501 19.0285 185.259 18.9272 185.905 18.7246C186.561 18.5124 187.106 18.2181 187.541 17.8418C187.984 17.4559 188.312 16.9928 188.525 16.4524C188.747 15.9025 188.858 15.2947 188.858 14.6289C188.858 13.2878 188.419 12.2458 187.541 11.5029C186.672 10.7503 185.37 10.3741 183.633 10.3741H176.18V19.0285H183.633Z" fill="black"/>
</svg>
