<svg width="90" height="55" viewBox="0 0 90 55" fill="none" xmlns="http://www.w3.org/2000/svg">
<circle cx="22.0007" cy="27.4997" r="14.6667" fill="#BFD5CD"/>
<circle cx="67.8327" cy="27.4997" r="14.6667" fill="#E7AA74"/>
<path d="M2.8351 26.9256C2.8351 24.3623 3.30577 22.0162 4.2471 19.8874C5.18844 17.7585 6.50631 15.9338 8.20071 14.4131C9.90959 12.878 11.9516 11.6905 14.3266 10.8506C16.7162 10.0106 19.3591 9.59062 22.2556 9.59062C25.1375 9.59062 27.7732 10.0106 30.1628 10.8506C32.5523 11.6905 34.5943 12.878 36.2887 14.4131C37.9976 15.9338 39.3227 17.7585 40.264 19.8874C41.2053 22.0162 41.676 24.3623 41.676 26.9256C41.676 29.5035 41.2053 31.8713 40.264 34.0291C39.3227 36.1724 37.9976 38.0189 36.2887 39.5685C34.5943 41.1181 32.5523 42.3273 30.1628 43.1962C27.7732 44.0507 25.1375 44.4779 22.2556 44.4779C19.3591 44.4779 16.7162 44.0507 14.3266 43.1962C11.9516 42.3273 9.90959 41.1181 8.20071 39.5685C6.50631 38.0189 5.18844 36.1724 4.2471 34.0291C3.30577 31.8713 2.8351 29.5035 2.8351 26.9256ZM9.72132 26.9256C9.72132 28.678 10.0327 30.2565 10.6554 31.6613C11.2926 33.066 12.1688 34.2681 13.2839 35.2673C14.4135 36.2521 15.7386 37.0124 17.2592 37.5482C18.7943 38.0841 20.4598 38.352 22.2556 38.352C24.0513 38.352 25.7095 38.0841 27.2301 37.5482C28.7652 37.0124 30.0903 36.2521 31.2055 35.2673C32.3206 34.2681 33.1967 33.066 33.834 31.6613C34.4712 30.2565 34.7898 28.678 34.7898 26.9256C34.7898 25.1733 34.4712 23.602 33.834 22.2117C33.1967 20.8215 32.3206 19.6484 31.2055 18.6926C30.0903 17.7223 28.7652 16.9837 27.2301 16.4768C25.7095 15.97 24.0513 15.7165 22.2556 15.7165C20.4598 15.7165 18.7943 15.97 17.2592 16.4768C15.7386 16.9837 14.4135 17.7223 13.2839 18.6926C12.1688 19.6484 11.2926 20.8215 10.6554 22.2117C10.0327 23.602 9.72132 25.1733 9.72132 26.9256ZM47.324 26.9256C47.324 24.3623 47.7947 22.0162 48.736 19.8874C49.6773 17.7585 50.9952 15.9338 52.6896 14.4131C54.3985 12.878 56.4405 11.6905 58.8155 10.8506C61.2051 10.0106 63.848 9.59062 66.7444 9.59062C69.6264 9.59062 72.2621 10.0106 74.6517 10.8506C77.0412 11.6905 79.0832 12.878 80.7776 14.4131C82.4865 15.9338 83.8116 17.7585 84.7529 19.8874C85.6942 22.0162 86.1649 24.3623 86.1649 26.9256C86.1649 29.5035 85.6942 31.8713 84.7529 34.0291C83.8116 36.1724 82.4865 38.0189 80.7776 39.5685C79.0832 41.1181 77.0412 42.3273 74.6517 43.1962C72.2621 44.0507 69.6264 44.4779 66.7444 44.4779C63.848 44.4779 61.2051 44.0507 58.8155 43.1962C56.4405 42.3273 54.3985 41.1181 52.6896 39.5685C50.9952 38.0189 49.6773 36.1724 48.736 34.0291C47.7947 31.8713 47.324 29.5035 47.324 26.9256ZM54.2102 26.9256C54.2102 28.678 54.5216 30.2565 55.1443 31.6613C55.7815 33.066 56.6577 34.2681 57.7728 35.2673C58.9024 36.2521 60.2275 37.0124 61.7481 37.5482C63.2832 38.0841 64.9487 38.352 66.7444 38.352C68.5402 38.352 70.1984 38.0841 71.719 37.5482C73.2541 37.0124 74.5792 36.2521 75.6944 35.2673C76.8095 34.2681 77.6856 33.066 78.3229 31.6613C78.9601 30.2565 79.2787 28.678 79.2787 26.9256C79.2787 25.1733 78.9601 23.602 78.3229 22.2117C77.6856 20.8215 76.8095 19.6484 75.6944 18.6926C74.5792 17.7223 73.2541 16.9837 71.719 16.4768C70.1984 15.97 68.5402 15.7165 66.7444 15.7165C64.9487 15.7165 63.2832 15.97 61.7481 16.4768C60.2275 16.9837 58.9024 17.7223 57.7728 18.6926C56.6577 19.6484 55.7815 20.8215 55.1443 22.2117C54.5216 23.602 54.2102 25.1733 54.2102 26.9256Z" fill="black"/>
</svg>
